<?xml version="1.0" encoding="utf-8"?>
<!-- Generator: Adobe Illustrator 16.0.0, SVG Export Plug-In . SVG Version: 6.00 Build 0)  -->
<!DOCTYPE svg PUBLIC "-//W3C//DTD SVG 1.1//EN" "http://www.w3.org/Graphics/SVG/1.1/DTD/svg11.dtd">
<svg version="1.1" id="Layer_1" xmlns="http://www.w3.org/2000/svg" xmlns:xlink="http://www.w3.org/1999/xlink" x="0px" y="0px"
	 width="317px" height="88px" viewBox="0 0 317 88" enable-background="new 0 0 317 88" xml:space="preserve">
<g>
	<path fill="#FFFFFF" d="M268.46,39.827c-1.063,0-1.96,0.42-2.52,1.064c-0.756,0.84-0.952,1.764-0.952,5.6
		c0,3.835,0.196,4.759,0.952,5.599c0.56,0.645,1.456,1.064,2.52,1.064c1.064,0,1.933-0.42,2.492-1.064
		c0.756-0.84,0.98-1.764,0.98-5.599c0-3.836-0.225-4.76-0.98-5.6C270.393,40.247,269.524,39.827,268.46,39.827z"/>
	<path fill="#FFFFFF" d="M287.336,39.995h-3.64v5.46h3.64c1.765,0,2.885-1.092,2.885-2.716S289.101,39.995,287.336,39.995z"/>
	<path fill="#FFFFFF" d="M301.083,30.019H188.916c-1.1,0-2,0.9-2,2v28c0,1.1,0.9,2,2,2h112.167c1.1,0,2-0.9,2-2v-28
		C303.083,30.919,302.183,30.019,301.083,30.019z M210.289,39.995h-9.24v4.676h7.868v3.472h-7.868v4.844h9.24v3.473h-13.132V36.523
		h13.132V39.995z M222.054,48.199h-8.624v-3.388h8.624V48.199z M231.52,56.627c-3.023,0-5.319-0.645-7.279-2.633l2.52-2.52
		c1.26,1.26,2.968,1.68,4.816,1.68c2.296,0,3.527-0.867,3.527-2.463c0-0.701-0.195-1.289-0.615-1.682
		c-0.393-0.363-0.84-0.559-1.765-0.699l-2.407-0.336c-1.708-0.252-2.969-0.783-3.864-1.651c-0.952-0.952-1.428-2.24-1.428-3.92
		c0-3.556,2.632-6.048,6.943-6.048c2.744,0,4.732,0.672,6.44,2.324l-2.464,2.436c-1.261-1.204-2.772-1.372-4.088-1.372
		c-2.072,0-3.08,1.148-3.08,2.52c0,0.504,0.168,1.036,0.588,1.428c0.392,0.364,1.036,0.672,1.848,0.784l2.353,0.336
		c1.819,0.251,2.968,0.755,3.808,1.541c1.063,1.008,1.54,2.463,1.54,4.227C238.912,54.443,235.692,56.627,231.52,56.627z
		 M257.115,56.459h-3.892v-8.344h-6.748v8.344h-3.892V36.523h3.892v8.148h6.748v-8.148h3.892V56.459z M273.836,54.443
		c-1.399,1.398-3.107,2.184-5.376,2.184c-2.268,0-4.004-0.785-5.403-2.184c-2.017-2.018-1.96-4.51-1.96-7.952
		c0-3.444-0.057-5.936,1.96-7.952c1.399-1.4,3.136-2.184,5.403-2.184c2.269,0,3.977,0.784,5.376,2.184
		c2.017,2.016,1.988,4.508,1.988,7.952C275.824,49.934,275.853,52.426,273.836,54.443z M287.532,48.955h-3.836v7.504h-3.892V36.523
		h7.728c4.116,0,6.58,2.828,6.58,6.216C294.112,46.127,291.648,48.955,287.532,48.955z"/>
</g>
<g>
	<path fill="#FFFFFF" d="M97.727,26.139H91.54v9.668h6.187c3.046,0,5.139-1.537,5.139-4.834
		C102.866,27.676,100.772,26.139,97.727,26.139 M97.907,37.292H91.54v9.302h-1.66V24.66h8.027c3.792,0,6.619,2.28,6.619,6.313
		C104.526,34.98,101.699,37.292,97.907,37.292"/>
	<path fill="#FFFFFF" d="M114.937,34.209c-0.83-0.829-1.877-1.264-3.073-1.264c-1.206,0-2.249,0.435-3.079,1.264
		c-1.232,1.229-1.322,3.232-1.322,4.959c0,1.725,0.09,3.732,1.322,4.962c0.83,0.832,1.874,1.265,3.079,1.265
		c1.196,0,2.243-0.433,3.073-1.265c1.233-1.23,1.326-3.237,1.326-4.962C116.263,37.441,116.17,35.438,114.937,34.209
		 M115.983,45.146c-1.075,1.079-2.429,1.635-4.119,1.635c-1.665,0-3.046-0.556-4.127-1.635c-1.569-1.567-1.847-3.847-1.847-5.977
		c0-2.123,0.278-4.408,1.847-5.974c1.081-1.079,2.462-1.632,4.127-1.632c1.69,0,3.044,0.554,4.119,1.632
		c1.572,1.566,1.85,3.851,1.85,5.974C117.833,41.298,117.555,43.578,115.983,45.146"/>
	<path fill="#FFFFFF" d="M121.47,42.715v-9.798h-2.031v-1.171h2.031V27h1.571v4.745h3.353v1.171h-3.353v9.827
		c0,1.572,0.705,2.468,2.277,2.468h1.076v1.382h-1.355C122.699,46.594,121.47,44.962,121.47,42.715"/>
	<path fill="#FFFFFF" d="M129.258,31.746h1.57v14.848h-1.57V31.746z M129.075,24.66h1.939v1.941h-1.939V24.66z"/>
	<path fill="#FFFFFF" d="M140.617,46.78c-4.061,0-6.523-2.898-6.523-7.612s2.463-7.606,6.523-7.606c2.03,0,3.325,0.521,4.895,2.277
		l-1.077,0.986c-1.262-1.419-2.248-1.881-3.818-1.881c-1.689,0-3.046,0.649-3.939,1.974c-0.736,1.079-1.015,2.25-1.015,4.25
		c0,2.001,0.279,3.176,1.015,4.25c0.893,1.328,2.25,1.977,3.939,1.977c1.57,0,2.556-0.497,3.818-1.882l1.077,0.986
		C143.942,46.257,142.647,46.78,140.617,46.78"/>
	<path fill="#FFFFFF" d="M158.136,37.383c0-2.866-1.417-4.438-4.096-4.438c-2.674,0-4.183,1.604-4.183,4.438v9.211h-1.566V24.66
		h1.566v8.841c1.112-1.297,2.556-1.939,4.368-1.939c3.418,0,5.478,2.093,5.478,5.544v9.487h-1.567V37.383z"/>
	<path fill="#FFFFFF" d="M173.313,44.835c-1.108,1.299-2.558,1.945-4.37,1.945c-1.631,0-2.956-0.461-3.942-1.419
		c-1.012-0.985-1.537-2.372-1.537-4.13v-9.485h1.57v9.212c0,2.866,1.416,4.433,4.094,4.433c2.677,0,4.186-1.599,4.186-4.433v-9.212
		h1.567v14.848h-1.567V44.835z"/>
	<polygon fill="#FFFFFF" points="89.668,61.667 93.29,56.814 89.868,56.814 89.868,56.253 93.959,56.253 93.959,56.854 
		90.331,61.708 93.959,61.708 93.959,62.268 89.668,62.268 	"/>
	<polygon fill="#FFFFFF" points="97.008,62.268 94.806,56.252 95.508,56.252 97.316,61.521 99.124,56.252 99.822,56.252 
		97.631,62.268 	"/>
	<path fill="#FFFFFF" d="M105.126,61.557c-0.45,0.526-1.038,0.789-1.775,0.789c-0.658,0-1.195-0.19-1.596-0.575
		c-0.414-0.399-0.623-0.961-0.623-1.671v-3.847h0.637v3.732c0,1.161,0.573,1.798,1.657,1.798c1.087,0,1.7-0.648,1.7-1.798v-3.732
		h0.636v6.015h-0.636V61.557z"/>
	<polygon fill="#FFFFFF" points="110.188,58.962 108.818,60.547 108.818,62.268 108.179,62.268 108.179,53.383 108.818,53.383 
		108.818,59.648 111.796,56.253 112.606,56.253 110.627,58.501 113.045,62.268 112.262,62.268 	"/>
	<path fill="#FFFFFF" d="M117.982,57.249c-0.336-0.334-0.76-0.51-1.245-0.51c-0.488,0-0.911,0.176-1.25,0.51
		c-0.499,0.498-0.535,1.313-0.535,2.009c0,0.7,0.037,1.515,0.535,2.011c0.34,0.336,0.763,0.515,1.25,0.515
		c0.485,0,0.909-0.179,1.245-0.515c0.5-0.496,0.542-1.311,0.542-2.011C118.523,58.562,118.481,57.747,117.982,57.249
		 M118.411,61.679c-0.439,0.439-0.986,0.667-1.674,0.667c-0.675,0-1.237-0.228-1.673-0.667c-0.636-0.637-0.749-1.559-0.749-2.421
		s0.112-1.784,0.749-2.418c0.436-0.439,0.998-0.66,1.673-0.66c0.688,0,1.235,0.221,1.674,0.66c0.636,0.634,0.743,1.556,0.743,2.418
		S119.047,61.042,118.411,61.679"/>
	<polygon fill="#FFFFFF" points="122.26,62.268 120.064,56.252 120.762,56.252 122.572,61.521 124.382,56.252 125.079,56.252 
		122.885,62.268 	"/>
	<path fill="#FFFFFF" d="M127.834,54.906l1.211-1.836h0.837l-1.326,1.836H127.834z M129.958,57.745
		c-0.266-0.63-0.862-1.004-1.562-1.004c-0.697,0-1.297,0.374-1.559,1.004c-0.137,0.39-0.172,0.558-0.212,1.14h3.542
		C130.132,58.31,130.121,58.111,129.958,57.745 M128.583,61.771c0.714,0,1.149-0.214,1.661-0.729l0.474,0.377
		c-0.613,0.615-1.173,0.926-2.168,0.926c-1.663,0-2.561-1.075-2.561-3.086c0-1.946,0.897-3.078,2.406-3.078
		c1.514,0,2.411,1.082,2.411,2.931v0.287h-4.182C126.625,60.933,127.297,61.771,128.583,61.771"/>
	<path fill="#FFFFFF" d="M136.038,62.268h0.64v-6.016h-0.64V62.268z M135.965,54.168h0.788v-0.785h-0.788V54.168z"/>
	<polygon fill="#FFFFFF" points="138.561,61.667 142.18,56.814 138.76,56.814 138.76,56.253 142.855,56.253 142.855,56.854 
		139.221,61.708 142.855,61.708 142.855,62.268 138.561,62.268 	"/>
	<path fill="#FFFFFF" d="M148.057,57.249c-0.34-0.334-0.765-0.51-1.252-0.51c-0.486,0-0.911,0.176-1.247,0.51
		c-0.499,0.498-0.537,1.313-0.537,2.009c0,0.7,0.039,1.515,0.537,2.011c0.335,0.336,0.761,0.515,1.247,0.515
		c0.487,0,0.913-0.179,1.252-0.515c0.497-0.496,0.534-1.311,0.534-2.011C148.591,58.562,148.553,57.747,148.057,57.249
		 M148.476,61.679c-0.435,0.439-0.984,0.667-1.672,0.667c-0.668,0-1.23-0.228-1.671-0.667c-0.636-0.637-0.749-1.559-0.749-2.421
		s0.112-1.784,0.749-2.418c0.44-0.439,1.002-0.66,1.671-0.66c0.688,0,1.237,0.221,1.672,0.66c0.639,0.634,0.749,1.556,0.749,2.418
		S149.115,61.042,148.476,61.679"/>
	<path fill="#FFFFFF" d="M151.268,60.707v-7.324h0.639v7.311c0,0.687,0.213,1.015,0.923,1.015h0.437v0.56h-0.549
		C151.733,62.268,151.268,61.659,151.268,60.707"/>
	<path fill="#FFFFFF" d="M156.182,54.906l1.21-1.836h0.835l-1.321,1.836H156.182z M156.532,59.397c-1.02,0-1.534,0.398-1.534,1.21
		c0,0.802,0.476,1.174,1.573,1.174c0.549,0,1.062-0.054,1.495-0.468c0.227-0.207,0.336-0.592,0.336-1.139v-0.777H156.532z
		 M158.402,61.668c-0.511,0.512-0.984,0.678-1.832,0.678c-0.897,0-1.385-0.154-1.773-0.551c-0.285-0.287-0.436-0.725-0.436-1.174
		c0-1.097,0.786-1.736,2.096-1.736h1.945v-0.674c0-0.962-0.458-1.47-1.694-1.47c-0.846,0-1.274,0.21-1.66,0.76l-0.461-0.4
		c0.513-0.712,1.133-0.921,2.122-0.921c1.596,0,2.333,0.709,2.333,1.97v4.118h-0.639V61.668z"/>
	<path fill="#FFFFFF" d="M163.702,62.346c-1.646,0-2.643-1.176-2.643-3.088c0-1.905,0.996-3.08,2.643-3.08
		c0.823,0,1.349,0.211,1.982,0.923l-0.437,0.4c-0.509-0.577-0.911-0.76-1.546-0.76c-0.688,0-1.234,0.258-1.596,0.797
		c-0.301,0.436-0.416,0.911-0.416,1.72c0,0.814,0.115,1.288,0.416,1.724c0.361,0.539,0.908,0.802,1.596,0.802
		c0.635,0,1.037-0.202,1.546-0.763l0.437,0.397C165.051,62.132,164.525,62.346,163.702,62.346"/>
	<path fill="#FFFFFF" d="M167.556,62.268h0.636v-6.016h-0.636V62.268z M167.48,54.168h0.786v-0.785h-0.786V54.168z"/>
	<path fill="#FFFFFF" d="M174.225,57.745c-0.262-0.63-0.857-1.004-1.559-1.004c-0.697,0-1.298,0.374-1.56,1.004
		c-0.136,0.39-0.171,0.558-0.209,1.14h3.54C174.406,58.31,174.39,58.111,174.225,57.745 M172.86,61.771
		c0.707,0,1.146-0.214,1.654-0.729l0.476,0.377c-0.614,0.615-1.173,0.926-2.173,0.926c-1.658,0-2.559-1.075-2.559-3.086
		c0-1.946,0.9-3.078,2.407-3.078c1.517,0,2.413,1.082,2.413,2.931v0.287h-4.182C170.897,60.933,171.569,61.771,172.86,61.771"/>
	<path fill="#FFFFFF" d="M13.193,55.001c-0.439-0.069-0.741-0.485-0.672-0.929l3.234-20.341c0.074-0.441,0.49-0.746,0.933-0.672
		c0.442,0.068,0.745,0.483,0.674,0.927l-3.234,20.341c-0.066,0.402-0.412,0.687-0.805,0.687
		C13.282,55.015,13.235,55.008,13.193,55.001"/>
	<path fill="#FFFFFF" d="M18.959,51.499c-0.44-0.073-0.743-0.488-0.674-0.931l2.126-13.339c0.07-0.438,0.486-0.743,0.932-0.672
		c0.442,0.073,0.744,0.492,0.674,0.935l-2.125,13.329c-0.062,0.403-0.407,0.689-0.803,0.689
		C19.044,51.511,19.002,51.507,18.959,51.499"/>
	<path fill="#FFFFFF" d="M8.951,49.057c-0.443-0.071-0.743-0.485-0.673-0.929l1.254-7.91c0.076-0.439,0.489-0.748,0.933-0.673
		c0.444,0.069,0.747,0.488,0.674,0.929l-1.256,7.911C9.822,48.78,9.472,49.07,9.081,49.07C9.036,49.07,8.995,49.066,8.951,49.057"/>
	<path fill="#FFFFFF" d="M22.613,61.298c-0.443-0.073-0.747-0.488-0.672-0.933l5.245-32.929c0.07-0.445,0.489-0.748,0.93-0.674
		c0.443,0.07,0.745,0.485,0.673,0.929l-5.248,32.931c-0.061,0.401-0.407,0.689-0.803,0.689
		C22.697,61.311,22.655,61.307,22.613,61.298"/>
	<path fill="#FFFFFF" d="M28.507,56.999c-0.438-0.072-0.743-0.487-0.673-0.931l3.875-24.33c0.07-0.444,0.487-0.744,0.934-0.679
		c0.44,0.074,0.746,0.492,0.673,0.937l-3.878,24.325c-0.061,0.4-0.407,0.686-0.794,0.686C28.598,57.007,28.551,57.004,28.507,56.999
		"/>
	<path fill="#FFFFFF" d="M33.38,59.146c-0.443-0.07-0.747-0.489-0.677-0.931l4.561-28.633c0.076-0.444,0.492-0.743,0.932-0.673
		c0.443,0.069,0.745,0.492,0.675,0.932l-4.563,28.633c-0.064,0.396-0.411,0.684-0.801,0.684
		C33.463,59.158,33.419,59.155,33.38,59.146"/>
	<path fill="#FFFFFF" d="M39.247,55.008c-0.441-0.068-0.747-0.487-0.671-0.93l3.236-20.35c0.073-0.438,0.489-0.743,0.929-0.67
		c0.446,0.067,0.747,0.484,0.68,0.929l-3.244,20.348c-0.064,0.399-0.41,0.683-0.802,0.683
		C39.332,55.018,39.289,55.015,39.247,55.008"/>
	<path fill="#FFFFFF" d="M44.713,53.411c-0.443-0.069-0.743-0.488-0.672-0.926l2.732-17.161c0.073-0.443,0.487-0.747,0.932-0.676
		c0.444,0.074,0.746,0.486,0.673,0.935l-2.732,17.154c-0.066,0.399-0.408,0.687-0.8,0.687
		C44.804,53.424,44.757,53.421,44.713,53.411"/>
	<path fill="#FFFFFF" d="M55.363,51.975c-0.44-0.069-0.745-0.484-0.674-0.926l2.278-14.293c0.068-0.441,0.489-0.746,0.928-0.675
		c0.444,0.068,0.746,0.49,0.676,0.933l-2.273,14.288c-0.067,0.397-0.407,0.686-0.802,0.686
		C55.452,51.987,55.407,51.983,55.363,51.975"/>
	<path fill="#FFFFFF" d="M48.887,59.947c-0.443-0.069-0.75-0.488-0.676-0.933l4.813-30.226c0.07-0.438,0.486-0.742,0.929-0.671
		c0.443,0.074,0.749,0.489,0.677,0.932l-4.815,30.22c-0.065,0.403-0.412,0.687-0.8,0.687C48.972,59.956,48.931,59.956,48.887,59.947
		"/>
	<path fill="#FFFFFF" d="M71.202,78.113V9.085c0-0.446,0.329-0.813,0.734-0.813c0.404,0,0.728,0.367,0.728,0.813v69.028
		c0,0.448-0.324,0.813-0.728,0.813C71.53,78.926,71.202,78.562,71.202,78.113"/>
</g>
</svg>
