<svg xmlns="http://www.w3.org/2000/svg" width="317" height="88">
  <g fill="#FFF">
    <path d="M268.46 39.83c-1.06 0-1.96.42-2.52 1.06-.76.8-.95 1.7-.95 5.6 0 3.8.1 4.7.9 5.6.5.6 1.4 1 2.5 1s1.9-.4 2.5-1.1c.7-.9.9-1.8.9-5.6s-.2-4.8-1-5.6c-.6-.7-1.5-1.1-2.5-1.1zm18.88.17h-3.64v5.45h3.64c1.76 0 2.88-1.1 2.88-2.7S289.1 40 287.34 40z"/>
    <path d="M301.08 30.02H188.92c-1.1 0-2 .9-2 2v28c0 1.1.9 2 2 2h112.16c1.1 0 2-.9 2-2v-28c0-1.1-.9-2-2-2zM210.28 40h-9.23v4.67h7.87v3.47h-7.87V53h9.24v3.46h-13.2V36.52h13.1V40zm11.77 8.2h-8.62v-3.4h8.62v3.4zm9.47 8.43c-3.02 0-5.32-.65-7.28-2.64l2.52-2.6c1.26 1.2 2.97 1.7 4.82 1.7 2.3 0 3.52-.9 3.52-2.5 0-.7-.2-1.3-.6-1.7-.4-.4-.85-.6-1.78-.7l-2.4-.4c-1.7-.3-2.97-.8-3.87-1.7-.95-1-1.42-2.3-1.42-4 0-3.6 2.63-6.1 6.94-6.1 2.74 0 4.73.6 6.44 2.3L236 41c-1.22-1.2-2.73-1.37-4.04-1.37-2.1 0-3.1 1.15-3.1 2.52 0 .5.16 1.04.58 1.43.4.37 1.05.68 1.86.8l2.36.33c1.8.3 2.94.8 3.8 1.6 1.05 1 1.52 2.5 1.52 4.3 0 3.9-3.2 6.1-7.38 6.1zm25.6-.17h-3.9v-8.34h-6.74v8.34h-3.9V36.52h3.9v8.15h6.74v-8.15h3.9v19.94zm16.72-2.02c-1.4 1.4-3.1 2.2-5.38 2.2-2.27 0-4-.8-5.4-2.2-2.02-2-1.96-4.5-1.96-7.95s-.06-6 1.96-8c1.4-1.4 3.13-2.2 5.4-2.2 2.27 0 3.98.8 5.38 2.2 2 2 1.98 4.5 1.98 7.9 0 3.4.03 5.9-1.98 7.9zm13.7-5.48h-3.84v7.5h-3.9V36.52h7.73c4.12 0 6.58 2.83 6.58 6.22 0 3.4-2.4 6.2-6.5 6.2z"/>
  </g>
  <path d="M97.73 26.14h-6.2v9.67h6.2c3.04 0 5.14-1.5 5.14-4.8s-2.1-4.8-5.14-4.8m.18 11.2h-6.3v9.3h-1.7v-22H98c3.8 0 6.63 2.3 6.63 6.3s-2.83 6.4-6.63 6.4m17-3.1c-.8-.8-1.83-1.2-3.03-1.2s-2.24.5-3.07 1.3c-1.3 1.3-1.4 3.3-1.4 5 0 1.7.1 3.7 1.34 5 .82.8 1.86 1.3 3.06 1.3s2.26-.4 3.1-1.2c1.23-1.2 1.32-3.2 1.32-4.9 0-1.7-.1-3.7-1.3-4.9m1 10.9c-1.06 1.1-2.42 1.7-4.1 1.7-1.67 0-3.05-.5-4.13-1.6-1.6-1.6-1.9-3.8-1.9-6 0-2.1.2-4.4 1.8-6 1.1-1 2.4-1.6 4.1-1.6 1.7 0 3 .6 4.1 1.6 1.6 1.6 1.8 3.9 1.8 6s-.3 4.4-1.9 6m5.5-2.4V33h-2.1v-1.2h2V27h1.6v4.75h3.3v1.17H123v9.82c0 1.58.7 2.47 2.28 2.47h1.08v1.4H125c-2.34 0-3.57-1.6-3.57-3.8m7.8-11h1.58v14.8h-1.5V31.8zm-.2-7.1H131v2h-1.9v-2zm11.57 22.1c-4.06 0-6.53-2.9-6.53-7.6s2.44-7.6 6.5-7.6c2.03 0 3.32.5 4.9 2.3l-1.1 1c-1.25-1.4-2.23-1.9-3.8-1.9-1.7 0-3.05.7-3.94 2-.74 1.1-1.02 2.3-1.02 4.3s.3 3.2 1.1 4.3c.9 1.4 2.3 2 4 2 1.6 0 2.6-.5 3.8-1.9l1.1 1c-1.5 1.8-2.8 2.3-4.9 2.3m17.6-9.4c0-2.8-1.4-4.4-4.1-4.4-2.6 0-4.1 1.6-4.1 4.5v9.2h-1.5v-22h1.5v8.9c1.1-1.3 2.6-1.9 4.4-1.9 3.5 0 5.5 2.1 5.5 5.6V47h-1.5v-9.3zm15.2 7.4c-1.1 1.3-2.5 2-4.3 2-1.6 0-2.9-.4-3.9-1.4-1-1-1.5-2.3-1.5-4.1V32h1.5v9c0 2.86 1.5 4.43 4.1 4.43 2.7 0 4.2-1.6 4.2-4.5v-9.2h1.6v14.83h-1.5V44.8zM89.7 61.7l3.6-4.84h-3.45v-.5h4.1v.6l-3.65 4.9H94v.6h-4.3m7.3 0l-2.2-6h.7l1.8 5.28 1.8-5.26h.7l-2.2 6m7.5-.7c-.44.5-1.03.8-1.77.8-.66 0-1.2-.2-1.6-.6-.4-.4-.62-.94-.62-1.65v-3.9h.7V60c0 1.15.6 1.78 1.7 1.78s1.7-.64 1.7-1.8v-3.73h.7v6.02h-.6v-.7zm5.1-2.6l-1.4 1.6v1.7h-.64v-8.9h.64v6.3l3-3.4h.8l-1.98 2.24 2.42 3.77h-.8m5.73-5.1c-.33-.4-.76-.5-1.24-.5-.5 0-.9.1-1.25.5-.5.5-.56 1.3-.56 2s.04 1.5.54 2c.33.3.75.5 1.24.5.48 0 .9-.2 1.24-.5.5-.5.54-1.3.54-2s-.04-1.5-.54-2m.43 4.4c-.44.4-1 .6-1.67.6-.68 0-1.24-.2-1.68-.7-.63-.7-.75-1.6-.75-2.5s.13-1.8.76-2.4c.44-.4 1-.7 1.68-.7.7 0 1.3.2 1.7.7.7.7.8 1.6.8 2.5s-.1 1.8-.7 2.4m3.9.6l-2.2-6.1h.7l1.8 5.2 1.8-5.3h.7l-2.2 6m5-7.4l1.3-1.9h.9l-1.3 1.9h-.8zm2.2 2.8c-.3-.7-.9-1-1.6-1-.7 0-1.3.3-1.5 1-.2.4-.2.5-.3 1.1h3.5c0-.6-.1-.8-.2-1.2m-1.4 4c.7 0 1.2-.2 1.7-.7l.5.4c-.6.6-1.1.92-2.1.92-1.6 0-2.5-1.1-2.5-3.1 0-1.98.9-3.1 2.4-3.1s2.4 1.1 2.4 2.9v.3h-4.2c0 1.5.7 2.4 1.9 2.4m7.5.5h.7v-6h-.7v6zm0-8.1h.8v-.8h-.8v.8zm2.6 7.5l3.6-4.9H139V56h4.1v.6l-3.66 4.8h3.6v.6h-4.3m9.5-5.1c-.3-.35-.77-.5-1.26-.5-.5 0-.9.15-1.27.5-.5.5-.5 1.3-.5 2s.1 1.5.6 2c.4.3.8.5 1.3.5s.9-.2 1.3-.5c.5-.5.5-1.3.5-2s0-1.55-.5-2.05m.4 4.4c-.4.4-1 .63-1.7.63s-1.2-.2-1.7-.66c-.6-.63-.7-1.55-.7-2.4s.1-1.8.8-2.4c.4-.4 1-.63 1.6-.63.7 0 1.3.2 1.7.6.7.6.8 1.6.8 2.4s-.1 1.8-.8 2.4m2.8-1V53h.7v7.3c0 .7.2 1 .9 1h.5v.6h-.6c-1 0-1.42-.6-1.42-1.6m4.9-5.8l1.2-1.8h.8l-1.2 2h-.7zm.3 4.5c-1 0-1.5.4-1.5 1.2 0 .8.5 1.2 1.6 1.2.57 0 1.08-.06 1.5-.5.2-.2.3-.54.3-1.1V59h-1.82zm1.9 2.3c-.5.5-1 .66-1.8.66-.9 0-1.4-.15-1.8-.55-.3-.3-.4-.8-.4-1.2 0-1.1.8-1.8 2.1-1.8h1.96V58c0-.98-.46-1.5-1.7-1.5-.84 0-1.3.2-1.65.76l-.5-.4c.5-.7 1.1-.9 2.1-.9 1.6 0 2.3.7 2.3 2v4.1h-.7v-.6zm5.3.66c-1.6 0-2.6-1.17-2.6-3.1 0-1.9 1-3.06 2.67-3.06.8 0 1.3.2 1.9.9l-.4.4c-.5-.6-.9-.77-1.53-.77-.7 0-1.3.3-1.6.8-.3.4-.4.9-.4 1.7 0 .8.1 1.3.4 1.7.3.55.9.8 1.6.8.6 0 1-.2 1.5-.75l.44.4c-.6.7-1.14.9-2 .9m3.9-.1h.67v-6h-.6v6zm-.04-8.1h.8V53h-.8v.8zm6.7 3.6c-.26-.6-.85-1-1.55-1-.7 0-1.3.4-1.54 1-.1.4-.1.55-.2 1.13h3.6c0-.6-.1-.8-.2-1.2m-1.4 4c.7 0 1.17-.2 1.67-.7l.5.4c-.6.6-1.2 1-2.2 1-1.6 0-2.5-1.1-2.5-3.1 0-1.9.9-3 2.4-3s2.4 1.1 2.4 2.9v.3H171c0 1.6.7 2.4 2 2.4M13.2 55c-.45-.07-.75-.48-.68-.93l3.23-20.34c.08-.44.5-.75.94-.67.4.07.7.48.6.93l-3.2 20.3c-.1.4-.4.6-.8.6h-.2m5.8-3.5c-.5-.1-.8-.5-.7-1l2.1-13.3c.1-.5.5-.8.9-.7.4 0 .7.5.7.9l-2.1 13.4c-.1.4-.4.7-.8.7-.1 0-.1 0-.2-.1M8.9 49c-.44-.06-.74-.5-.67-.92l1.25-7.9c.1-.46.5-.77.94-.7.44.07.74.5.67.93l-1.2 8c-.1.4-.4.7-.8.7h-.2m13.7 12.2c-.5 0-.8-.5-.7-.9l5.2-32.9c0-.4.4-.7.9-.7.4.1.7.5.6 1l-5.2 32.9c-.1.4-.4.7-.8.7-.1 0-.1 0-.2-.1m6-4.2c-.5-.1-.8-.5-.7-1l3.9-24.3c.1-.4.5-.7 1-.7.5.1.8.5.7.9l-3.9 24.3c0 .4-.4.7-.8.7h-.2m4.9 2.2c-.4 0-.7-.5-.7-.9l4.6-28.6c.1-.4.5-.7.9-.7.4.1.7.5.7 1l-4.6 28.6c-.1.4-.4.7-.8.7h-.1m6-4.1c-.5 0-.8-.4-.7-.9L41.8 34c.1-.45.5-.75 1-.7.4 0 .7.4.7.9l-3.3 20.3c-.1.4-.4.6-.8.6h-.2m5.4-1.6c-.4-.1-.7-.5-.68-.9l2.73-17.2c.1-.5.5-.8.93-.7.5.1.8.5.7.9l-2.7 17.2c-.1.4-.4.7-.8.7h-.1m10.6-1.5c-.5-.1-.8-.5-.7-.96L57 36.7c.07-.4.5-.72.93-.65.43.07.73.5.66.93L56.3 51.3c-.07.4-.4.7-.8.7l-.14-.02m-6.46 7.97c-.46-.07-.76-.5-.7-.94l4.82-30.2c.07-.4.5-.7.93-.6.45.1.75.5.68 1L49.8 59.3c-.05.4-.4.7-.78.7h-.13m22.3 18.1v-69c0-.46.3-.83.7-.83.4 0 .7.37.7.82v69c0 .4-.3.8-.7.8-.4 0-.8-.4-.8-.8" fill="#FFF"/>
</svg>
