<svg xmlns="http://www.w3.org/2000/svg" height="296.2" width="364.5">
  <defs>
    <clipPath id="a">
      <path d="M0 2221.8V0h2734v2221.8z"/>
    </clipPath>
  </defs>
  <g clip-path="url(#a)" transform="matrix(.13333 0 0 -.13333 0 296.24)">
    <path d="M2734 1958.8c-100.7-44.6-208.8-74.8-322.2-88.3 115.8 69.4 204.7 179.3 246.6 310.3-108.4-64.3-228.4-111-356.2-136.2-102.3 109-248 177.2-409.4 177.2-309.8 0-561-251-561-561 0-44 5-86.7 14.6-127.7-466 23.8-879.4 247-1156 586-48.4-82.4-76-179-76-282 0-194.2 99-366 249.5-466.4-92 3-178.8 28-254 70-.5-2.2-.5-4.5-.5-7 0-271.7 193.3-498.4 450-550-47-12.7-96.7-19.6-147.8-19.6-36.3 0-71.4 3.4-105.7 10 71.5-223 278.6-385 524-389.5-192-150.5-433.7-240-696.5-240-45.3 0-90 2.5-133.8 7.7C248 93 543 0 859.7 0c1031.7 0 1595.8 854.7 1595.8 1596 0 24.2-.5 48.4-1.6 72.4 109.4 79 204.5 178 280 290.4" fill="#fff"/>
  </g>
</svg>
