<svg xmlns="http://www.w3.org/2000/svg" height="957.9" width="1361.9">
  <path d="M863 488.4L540.3 273l368 192-45.3 23.4" fill="#e3e2e0"/>
  <path d="M540.4 655.6V273l368 192zm808-449s-13.4-93.8-54.2-135c-51.8-54.4-110-54.7-136.5-57.8C967 0 681.3 0 681.3 0h-.6s-286 0-476.5 13.8c-26.6 3-84.7 3.4-136.5 57.7-40.8 41.3-54 135-54 135S0 317 0 427.2v103.4C0 640.8 13.6 751 13.6 751s13.3 94 54 135.2c52 54.2 120 52.5 150.3 58.2C327 954.7 681 958 681 958s286-.5 476.7-14.3c26.6-3.2 84.7-3.5 136.5-57.7 40.8-41.3 54-135.2 54-135.2s13.7-110.2 13.7-220.4V427c0-110-14-220.4-14-220.4" fill="#fff"/>
</svg>
