<?xml version="1.0" encoding="utf-8"?>
<!-- Generator: Adobe Illustrator 17.0.0, SVG Export Plug-In . SVG Version: 6.00 Build 0)  -->
<!DOCTYPE svg PUBLIC "-//W3C//DTD SVG 1.1//EN" "http://www.w3.org/Graphics/SVG/1.1/DTD/svg11.dtd">
<svg version="1.1" xmlns="http://www.w3.org/2000/svg" xmlns:xlink="http://www.w3.org/1999/xlink" x="0px" y="0px"
	 width="266.895px" height="266.895px" viewBox="0 0 266.895 266.895" enable-background="new 0 0 266.895 266.895"
	 xml:space="preserve">
<g id="Background">
	<rect x="-635.553" y="-112.553" fill="#E8EAED" width="512" height="500"/>
	<rect x="-123.553" y="-112.553" display="none" fill="#3B5998" width="512" height="500"/>
	<g id="Frame">
		<rect x="-635.553" y="-92.553" fill="#FFFFFF" width="1024" height="0.438"/>
		<rect x="-635.553" y="-72.553" fill="#FFFFFF" width="1024" height="0.438"/>
		<rect x="-143.771" y="-112.553" fill="#FFFFFF" width="0.438" height="500"/>
		<rect x="-615.553" y="-112.553" fill="#FFFFFF" width="0.438" height="500"/>
		<rect x="-103.771" y="-112.553" fill="#FFFFFF" width="0.438" height="500"/>
		<rect x="368.01" y="-112.553" fill="#FFFFFF" width="0.438" height="500"/>
		<rect x="-635.553" y="367.01" fill="#FFFFFF" width="1024" height="0.438"/>
	</g>
	<g id="Text">
		<text transform="matrix(1 0 0 1 -608.0522 -78.521)"><tspan x="0" y="0" fill="#333333" font-family="'Helvetica'" font-size="10">Facebook </tspan><tspan x="46.694" y="0" fill="#333333" font-family="'Helvetica'" font-size="10">“</tspan><tspan x="50.844" y="0" fill="#333333" font-family="'Helvetica'" font-size="10" letter-spacing="1">f</tspan><tspan x="54.633" y="0" fill="#333333" font-family="'Helvetica'" font-size="10">” Logo</tspan></text>
		<text transform="matrix(1 0 0 1 -191.9516 -78.521)" fill="#333333" font-family="'Helvetica'" font-size="10">RGB / .ai</text>
		<text transform="matrix(1 0 0 1 -96.0522 -78.521)"><tspan x="0" y="0" fill="#FFFFFF" font-family="'Helvetica'" font-size="10">Facebook </tspan><tspan x="46.694" y="0" fill="#FFFFFF" font-family="'Helvetica'" font-size="10">“</tspan><tspan x="50.844" y="0" fill="#FFFFFF" font-family="'Helvetica'" font-size="10" letter-spacing="1">f</tspan><tspan x="54.633" y="0" fill="#FFFFFF" font-family="'Helvetica'" font-size="10">” Logo</tspan></text>
		<text transform="matrix(1 0 0 1 320.0484 -78.521)" fill="#FFFFFF" font-family="'Helvetica'" font-size="10">RGB / .ai</text>
	</g>
</g>
<g id="White">
	<path id="White_2_" fill="#FFFFFF" d="M252.164,0H14.73C6.594,0,0,6.594,0,14.731v237.434c0,8.135,6.594,14.73,14.73,14.73h127.826
		V163.539h-34.781v-40.28h34.781V93.554c0-34.473,21.055-53.244,51.807-53.244c14.73,0,27.391,1.097,31.08,1.587v36.026
		l-21.328,0.01c-16.725,0-19.963,7.947-19.963,19.609v25.717h39.887l-5.193,40.28h-34.693v103.355h68.012
		c8.135,0,14.73-6.596,14.73-14.73V14.731C266.895,6.594,260.299,0,252.164,0z"/>
</g>
<g id="Blue">
	<path id="Blue_1_" fill="#3B5998" d="M-259.836,266.895c8.134,0,14.73-6.596,14.73-14.73V14.731c0-8.137-6.596-14.731-14.73-14.731
		h-237.433c-8.138,0-14.73,6.594-14.73,14.731v237.434c0,8.135,6.593,14.73,14.73,14.73H-259.836z"/>
	<path id="f" fill="#FFFFFF" d="M-327.848,266.895V163.539h34.693l5.194-40.28h-39.887V97.543c0-11.662,3.238-19.609,19.962-19.609
		l21.33-0.01V41.897c-3.69-0.49-16.351-1.587-31.081-1.587c-30.752,0-51.806,18.771-51.806,53.244v29.705h-34.781v40.28h34.781
		v103.355H-327.848z"/>
</g>
</svg>
